<?xml version="1.0" encoding="UTF-8"?>
<svg width="22px" height="22px" viewBox="0 0 22 22" version="1.1" xmlns="http://www.w3.org/2000/svg" xmlns:xlink="http://www.w3.org/1999/xlink">
    <title>Hamburger</title>
    <g id="Mobile-menu" stroke="none" stroke-width="1" fill="none" fill-rule="evenodd">
        <g id="Navigation---M---Menu---Collapsed" transform="translate(-336.000000, -110.000000)" fill="#FFFFFF" fill-rule="nonzero">
            <g id="HEADER" transform="translate(0.000000, 94.000000)">
                <g id="Path" transform="translate(335.000000, 15.000000)">
                    <path d="M2.44621165,1.39705176 L2.53033009,1.46966991 L12,10.939 L21.4696699,1.46966991 C21.7625631,1.1767767 22.2374369,1.1767767 22.5303301,1.46966991 C22.7965966,1.73593648 22.8208027,2.15260016 22.6029482,2.44621165 L22.5303301,2.53033009 L13.061,12 L22.5303301,21.4696699 C22.8232233,21.7625631 22.8232233,22.2374369 22.5303301,22.5303301 C22.2640635,22.7965966 21.8473998,22.8208027 21.5537883,22.6029482 L21.4696699,22.5303301 L12,13.061 L2.53033009,22.5303301 C2.23743687,22.8232233 1.76256313,22.8232233 1.46966991,22.5303301 C1.20340335,22.2640635 1.1791973,21.8473998 1.39705176,21.5537883 L1.46966991,21.4696699 L10.939,12 L1.46966991,2.53033009 C1.1767767,2.23743687 1.1767767,1.76256313 1.46966991,1.46966991 C1.7063513,1.23298853 2.06186498,1.18756482 2.34415877,1.33339881 L2.44621165,1.39705176 Z"></path>
                </g>
            </g>
        </g>
    </g>
</svg>