<svg xmlns="http://www.w3.org/2000/svg"
  width="64"
  height="64"
  viewBox="0 0 64 64">
  <defs>
    <linearGradient id="prefix__b"
      x1="39.391%"
      x2="49.579%"
      y1="0%"
      y2="96.028%">
      <stop offset="0%"
        stop-color="#558DFF"/>
      <stop offset="100%"
        stop-color="#643FFF"/>
    </linearGradient>
    <linearGradient id="prefix__a"
      x1="50%"
      x2="50%"
      y1="100%"
      y2=".872%">
      <stop offset="0%"
        stop-color="#FFF"
        stop-opacity=".08"/>
      <stop offset="100%"
        stop-color="#FFF"
        stop-opacity=".32"/>
    </linearGradient>
    <linearGradient id="prefix__c"
      x1="82.92%"
      x2="4.978%"
      y1="0%"
      y2="94.726%">
      <stop offset="0%"
        stop-color="#FFF"/>
      <stop offset="100%"
        stop-color="#AABEFF"/>
    </linearGradient>
  </defs>
  <g fill="none"
    fill-rule="evenodd">
    <path fill="url(#prefix__b)"
      stroke="url(#prefix__a)"
      d="M40.925.5h-17.85c-7.882 0-10.747.803-13.63 2.345-2.846 1.522-5.078 3.754-6.6 6.6C1.303 12.327.5 15.192.5 23.074v17.85c0 7.882.803 10.747 2.345 13.63 1.522 2.846 3.754 5.078 6.6 6.6 2.883 1.542 5.748 2.345 13.63 2.345h17.85c7.882 0 10.747-.803 13.63-2.345 2.846-1.522 5.078-3.754 6.6-6.6 1.542-2.883 2.345-5.748 2.345-13.63v-17.85c0-7.882-.803-10.747-2.345-13.63-1.522-2.846-3.754-5.078-6.6-6.6C51.673 1.303 48.808.5 40.926.5z"/>
    <path fill="url(#prefix__c)"
      d="M19.716 12.257c-.053-.1.513-.153.613-.153.111.013-.294.678-.613.153zm-3.228-4.608l.162-.047c.096.082-.108.143-.076.204.128.233.031.372.011.498-.02.127-.155.072-.223.14-.08.098.387.112.393.127.017.05-.563.133-.456.257.144.204 1.236-.293 1.062-.264.337-.17.043-.188-.146-.286-.064-.322-.118-.82-.319-1.02l.132-.152c-.309-.449-.54.543-.54.543zM36 18c0 9.94-8.06 18-18 18-9.942 0-18-8.06-18-18S8.058 0 18 0c9.94 0 18 8.06 18 18zM23.535 9.944c-.009-.22-.285-.427-.573-.047-.203.261-.166.659-.276.835-.156.263.85.509.85.261.038-.415 1.098-.094 1.305-.037.372.104.965-.339.317-.572-.533-.194-.813-.403-.861-.784 0 0 .282-.264.159-.249-.327.04-.921 1.179-.921.592zM32.979 18c0-1.552-.265-3.12-.535-3.948-.088-.261-.284-.468-.539-.567-.384-.15-2.006.896-2.25.381-.16-.343-.486.219-.858.012-.18-.099-.681-.773-.907-.69-.464.166.71 1.446 1.032 1.614.301-.228 1.277-.697 1.488-.057.401 1.206-1.106 2.528-1.877 3.223-1.152 1.041-.936-.673-1.72-1.277-.413-.317-.409-.99-.825-1.223-.186-.105-1.04-1.088-1.032-1.22l-.026.25c-.141.106-.441-.402-.473-.482 0 .443.72 1.148.959 1.502.407.607.624 1.492 1.122 1.988.267.267 1.287 1.372 1.552 1.348.29-.026 1.205-.688 1.367-.65.966.228-2.274 4.808-2.582 5.374-.253.476.207 1.652.17 2.215-.044.649-.555.859-1.04 1.213-.518.38-.397 1.117-.833 1.387-.776.477-1.334 2.03-2.435 2.023-.324-.002-1.71.54-1.891.01-.142-.384-.33-.675-.53-1.054-.195-.372-.022-.758-.26-1.087-.163-.227-.712-.745-.762-1.015-.003-.232.176-.939.42-1.062.344-.175.067-.687.024-.984-.072-.531-.4-.969-.794-1.276-.584-.449-.282-.806-.146-1.447 0-.306-.186-.707-.597-.588-.846.247-.59-.66-1.206-.619-.444.032-.807.314-1.22.438-.518.156-1.05-.123-1.563-.188-2.11-.267-2.798-2.678-2.248-4.419.056-.285-.171-.813-.072-1.033.237-.528.72-1.12 1.143-1.521.237-.225.541-.168.82-.344.431-.271.437-.829.858-1.171.6-.487 1.42-.477 2.203-.582.416-.056 2.003-.399 2.254-.09 0 .057.286.906-.029.858.65.034 1.576 1.123 2.192.868.317-.131.201-1.103.85-.634.393.282 2.154.408 2.52.103.226-.186.352-1.395.079-1.531.174.172-.917.186-1.019.147-.18-.066-.348.171-.638.037.174.083-.968-.53-.326-1-.269.197-.52-.055-.809.16-.2.163.093.27-.192.412-.453.229-.795-.788-.966-.904-.174-.114-1.521-1.059-1.155-.442l1.183 1.178c-.058.037-.31-.43-.31-.089.08-.203.03.868-.156.52-.082-.133.135-.208.009-.402 0-.127-.342-.251-.408-.338-.188-.233-.686-.746-.956-.869-.075-.034-1.146.13-1.236.165-.105.147-.195.302-.268.466-.222.083-.43.19-.628.322l-.236.529c-.102.091-1.147.437-1.153.45.043-.113-.731-.257-.68-.482.057-.247.32-1.02.252-1.301-.072-.296 1.611.426 1.719-.353.043-.338.069-.73-.47-.787.103.011 1.043-.37 1.199-.54.219-.252.721-.663 1.086-.663.426 0 .335-.62.531-.923.197.08-.105.564.13.76-.015-.154.668.086.734.05.156-.081 1.026-.033.891-.441-.15-.415.076-.292.271-.38-.033.014.51-.928.604-.619-.065-.318-.632.111-.83.095-.457-.037-.264-.78-.091-.998.133-.172-.365-.384-.371-.054-.009.494-.468.94-.361 1.596.162.989-1.103-.238-1.214-.171-.42.255-.764-.321-.546-.666.222-.353.758-.336.978-.714.156-.267.337-.578.577-.78.803-.673 1.025-.135 1.825-.062.781.072.264.187.155.487-.103.285.43.386.614.148.105-.138.343-.484.447-.741.134-.333 1.352-.295.501-.804-.561-.334-3.006-1.008-4.644-1.008-.354 0-.601.394-.872.618-.534.442-1.901 1.311-2.662 1.047-.779-.268-2.445.99-2.712.999-.098.006.006-.951.537-1.022-.23.035 1.87-1.06 1.814-1.288-.07-.27-4.199 1.233-4.014 1.535.088.138.448.138-.024.44-.27.164-.558 1.202-.812 1.202-.758.332-.806-.652-1.649.614l-1.34.54C5.097 9.84 3.72 12.52 3.22 15.497c-.02.119.5.339.568.42.168.201.168 1.068.25 1.352.208.716.719 1.116 1.11 1.768.231.389.615 1.371.494 1.779.162-.267 1.605 1.223 1.869 1.533.621.73 1.1 1.615.092 2.338-.326.235.494 1.694.072 2.053l-.542.139c-.534.329-.293 1.134.031 1.473 2.728 2.851 6.57 4.63 10.83 4.63 8.276 0 14.984-6.707 14.984-14.983zm-17.26-9.536c.187-.082.439-.079.466-.33.023-.222.066-.069.12-.15.053-.079-.1-.207-.165-.218-.096-.021-.162.103-.224.155l-.107.029-.102.13.011.072-.13.16c-.127.126.003.208.13.152z"
      transform="translate(14.333 14.333)"/>
  </g>
</svg>
