<svg xmlns="http://www.w3.org/2000/svg"
  width="64"
  height="64"
  viewBox="0 0 64 64">
  <defs>
    <linearGradient id="prefix__b"
      x1="34.699%"
      x2="100.685%"
      y1="100%"
      y2="0%">
      <stop offset="0%"
        stop-color="#00985F"/>
      <stop offset="100%"
        stop-color="#00FABC"/>
    </linearGradient>
    <linearGradient id="prefix__a"
      x1="50%"
      x2="50%"
      y1="100%"
      y2=".872%">
      <stop offset="0%"
        stop-color="#FFF"
        stop-opacity=".08"/>
      <stop offset="100%"
        stop-color="#FFF"
        stop-opacity=".32"/>
    </linearGradient>
    <linearGradient id="prefix__c"
      x1="60.884%"
      x2="34.88%"
      y1="0%"
      y2="95.589%">
      <stop offset="0%"
        stop-color="#FFF"/>
      <stop offset="100%"
        stop-color="#9CFFF2"/>
    </linearGradient>
  </defs>
  <g fill="none"
    fill-rule="evenodd">
    <path fill="url(#prefix__b)"
      stroke="url(#prefix__a)"
      d="M40.925.5h-17.85c-7.882 0-10.747.803-13.63 2.345-2.846 1.522-5.078 3.754-6.6 6.6C1.303 12.327.5 15.192.5 23.074v17.85c0 7.882.803 10.747 2.345 13.63 1.522 2.846 3.754 5.078 6.6 6.6 2.883 1.542 5.748 2.345 13.63 2.345h17.85c7.882 0 10.747-.803 13.63-2.345 2.846-1.522 5.078-3.754 6.6-6.6 1.542-2.883 2.345-5.748 2.345-13.63v-17.85c0-7.882-.803-10.747-2.345-13.63-1.522-2.846-3.754-5.078-6.6-6.6C51.673 1.303 48.808.5 40.926.5z"/>
    <path fill="url(#prefix__c)"
      d="M13.504 0H8.985l-1 5.277C3.471 6.28.64 9.33.64 13.61c0 4.101 2.321 6.711 7.046 7.845l.535.12 3.634.773c3.422.736 4.814 1.76 4.814 3.54 0 2.108-2.148 3.578-5.182 3.578-3.146 0-5.37-1.327-5.794-3.422l-.047-.29H0c.17 4.151 2.98 7.04 7.478 8.047l.507.104 1 5.205h4.519l1-5.221c4.993-.949 7.985-4.074 7.985-8.735 0-4.184-2.257-6.583-7.474-7.804l-3.914-.84c-3.269-.694-4.602-1.681-4.602-3.402 0-2.129 1.933-3.481 4.853-3.481 2.688 0 4.676 1.333 5.092 3.363l.051.31h5.492c-.138-3.907-2.877-6.834-7.018-7.92l-.465-.114-1-5.267z"
      transform="translate(20.444 12.444)"/>
  </g>
</svg>
