<?xml version="1.0" encoding="UTF-8"?>
<svg width="128px" height="48px" viewBox="0 0 128 48" version="1.1" xmlns="http://www.w3.org/2000/svg" xmlns:xlink="http://www.w3.org/1999/xlink">
    <title>logo</title>
    <defs>
        <linearGradient x1="80.4887974%" y1="5.16373813%" x2="10.5576533%" y2="81.300449%" id="linearGradient-1">
            <stop stop-color="#FFFFFF" offset="0%"></stop>
            <stop stop-color="#FFFFFF" stop-opacity="0" offset="100%"></stop>
        </linearGradient>
    </defs>
    <g id="Symbols" stroke="none" stroke-width="1" fill="none" fill-rule="evenodd">
        <g id="navigation/header/whats-new" transform="translate(-40.000000, -16.000000)">
            <g id="logo" transform="translate(40.000000, 16.000000)">
                <path d="M75.1239398,32 L76.3239398,20.672 L76.3719398,20.672 L77.5719398,32 L80.8599398,32 L82.5639398,15.2 L80.2839398,15.2 L79.1079398,28.112 L79.0599398,28.112 L77.8119398,15.2 L74.9319398,15.2 L73.6839398,28.112 L73.6359398,28.112 L72.4599398,15.2 L69.9159398,15.2 L71.6199398,32 L75.1239398,32 Z M89.7239398,32.24 C91.0199398,32.24 92.0119398,31.872 92.6999398,31.136 C93.3879398,30.4 93.7319398,29.36 93.7319398,28.016 L93.7319398,28.016 L93.7319398,19.184 C93.7319398,17.84 93.3879398,16.8 92.6999398,16.064 C92.0119398,15.328 91.0199398,14.96 89.7239398,14.96 C88.4279398,14.96 87.4359398,15.328 86.7479398,16.064 C86.0599398,16.8 85.7159398,17.84 85.7159398,19.184 L85.7159398,19.184 L85.7159398,28.016 C85.7159398,29.36 86.0599398,30.4 86.7479398,31.136 C87.4359398,31.872 88.4279398,32.24 89.7239398,32.24 Z M89.7239398,29.84 C88.8119398,29.84 88.3559398,29.288 88.3559398,28.184 L88.3559398,28.184 L88.3559398,19.016 C88.3559398,17.912 88.8119398,17.36 89.7239398,17.36 C90.6359398,17.36 91.0919398,17.912 91.0919398,19.016 L91.0919398,19.016 L91.0919398,28.184 C91.0919398,29.288 90.6359398,29.84 89.7239398,29.84 Z M100.14794,32 L100.14794,24.8 L101.05994,24.8 C101.66794,24.8 102.09594,24.952 102.34394,25.256 C102.59194,25.56 102.71594,26.096 102.71594,26.864 L102.71594,26.864 L102.71594,29.936 C102.71594,30.56 102.73194,30.992 102.76394,31.232 C102.79594,31.472 102.85994,31.728 102.95594,32 L102.95594,32 L105.64394,32 C105.51594,31.712 105.43594,31.42 105.40394,31.124 C105.37194,30.828 105.35594,30.44 105.35594,29.96 L105.35594,29.96 L105.35594,27.008 C105.35594,26.016 105.22394,25.224 104.95994,24.632 C104.69594,24.04 104.24394,23.648 103.60394,23.456 L103.60394,23.456 L103.60394,23.408 C104.75594,22.944 105.33194,21.84 105.33194,20.096 L105.33194,20.096 L105.33194,19.064 C105.33194,17.752 105.01994,16.78 104.39594,16.148 C103.77194,15.516 102.77994,15.2 101.41994,15.2 L101.41994,15.2 L97.5079398,15.2 L97.5079398,32 L100.14794,32 Z M101.10794,22.4 L100.14794,22.4 L100.14794,17.6 L101.34794,17.6 C101.81194,17.6 102.15194,17.736 102.36794,18.008 C102.58394,18.28 102.69194,18.72 102.69194,19.328 L102.69194,19.328 L102.69194,20.624 C102.69194,21.264 102.55994,21.72 102.29594,21.992 C102.03194,22.264 101.63594,22.4 101.10794,22.4 L101.10794,22.4 Z M116.16394,32 L116.16394,29.6 L111.81994,29.6 L111.81994,15.2 L109.17994,15.2 L109.17994,32 L116.16394,32 Z M123.46794,32 C124.77994,32 125.76394,31.648 126.41994,30.944 C127.07594,30.24 127.40394,29.208 127.40394,27.848 L127.40394,27.848 L127.40394,19.352 C127.40394,17.992 127.07594,16.96 126.41994,16.256 C125.76394,15.552 124.77994,15.2 123.46794,15.2 L123.46794,15.2 L119.43594,15.2 L119.43594,32 L123.46794,32 Z M123.41994,29.6 L122.07594,29.6 L122.07594,17.6 L123.41994,17.6 C123.85194,17.6 124.18394,17.728 124.41594,17.984 C124.64794,18.24 124.76394,18.656 124.76394,19.232 L124.76394,19.232 L124.76394,27.968 C124.76394,28.544 124.64794,28.96 124.41594,29.216 C124.18394,29.472 123.85194,29.6 123.41994,29.6 L123.41994,29.6 Z" id="WORLD" fill="#FFFFFF" fill-rule="nonzero"></path>
                <g id="Group">
                    <path d="M22.0003872,46.6687528 L22.000152,46.9852378 C21.2450601,47.6879594 20.8538996,48.0257056 20.8266704,47.9984764 C20.800773,47.9725791 21.192012,47.5293379 22.0003872,46.6687528 Z M21.9993222,39.4049565 L22,40.115 L19.6535959,42.4104317 C16.2528075,45.7130528 14.5258902,47.3378401 14.4728438,47.2847937 L14.4785893,47.2647016 L14.5092825,47.2199385 C14.5233611,47.2012621 14.5414109,47.1786128 14.5634318,47.1519908 L14.6414081,47.0602063 C15.281541,46.321706 17.734179,43.7699561 21.9993222,39.4049565 Z M22.0000772,32.3829846 L22.0003429,33.2622641 C14.0527556,41.0697058 10.0395509,44.9340155 9.96072864,44.8551933 C9.8893733,44.7838379 13.9024895,40.6264351 22.0000772,32.3829846 Z M21.9992934,25.3831155 L22,26.368 L19.4561732,28.8817006 C10.7423851,37.4504053 6.34448393,41.6937506 6.26246982,41.6117365 C6.18151781,41.5307845 11.4271257,36.1212442 21.9992934,25.3831155 Z M37.7637458,3.168745 C37.9654198,3.37041904 37.9654198,3.69739728 37.7637458,3.89907132 L23.0350011,18.4484635 C9.7815688,31.5156994 3.10957278,38.0040374 3.01901305,37.9134777 C2.90876457,37.8032292 10.5126821,29.9959317 25.8307657,14.4915853 L37.0334194,3.168745 L37.1049412,3.10898972 C37.3062083,2.96956075 37.5844799,2.98947918 37.7637458,3.168745 Z M33.2516306,0.739144541 C33.4533047,0.940818587 33.4533047,1.26779682 33.2516306,1.46947087 L12.9945837,21.4415906 C4.79786903,29.4881713 0.662811991,33.474762 0.589412597,33.4013626 C0.482928701,33.2948787 7.13735542,26.4434522 20.5526928,12.8470831 L32.5213043,0.739144541 L32.5928261,0.679389268 C32.7940932,0.539960297 33.0723648,0.559878722 33.2516306,0.739144541 Z M27.0235977,0.151255535 C27.2252718,0.352929581 27.2252718,0.679907816 27.0235977,0.881581862 L11.944134,15.711642 C4.06157713,23.4319505 0.0807069892,27.252513 0.00152359149,27.1733296 C-0.102068004,27.0697381 5.07686793,21.6987313 15.5383314,11.0603094 L26.2932714,0.151255535 L26.3647932,0.0915002618 C26.5660603,-0.0479287086 26.8443319,-0.0280102842 27.0235977,0.151255535 Z M19.9011083,0.332029378 C20.1027823,0.533703425 20.1027823,0.860681659 19.9011083,1.06235571 L8.81046757,11.900523 C3.13703811,17.4127518 0.260981397,20.1295242 0.182297435,20.0508402 C0.0700614438,19.9386042 4.46230256,15.3396309 13.3590208,6.25392017 L19.1707819,0.332029378 L19.2423038,0.272274105 C19.4435709,0.132845135 19.7218425,0.152763559 19.9011083,0.332029378 Z M41.4620046,6.41220176 C41.6412704,6.59146758 41.6611888,6.86973918 41.5217599,7.07100628 L41.4620046,7.14252809 L28.446,20 L27.3037162,20.0013141 C31.2301922,16.0213306 35.7061795,11.4916265 40.7316783,6.41220176 C40.9333523,6.21052772 41.2603305,6.21052772 41.4620046,6.41220176 Z M44.7054613,10.1104606 C44.8847272,10.2897264 44.9046456,10.567998 44.7652166,10.7692651 L44.7054613,10.8407869 L35.432,20 L34.1994262,20.0011261 C37.1826348,16.9797049 40.4412044,13.6828164 43.975135,10.1104606 C44.1768091,9.90878654 44.5037873,9.90878654 44.7054613,10.1104606 Z M47.1350618,14.6225757 C47.3143276,14.8018415 47.334246,15.0801131 47.1948171,15.2813802 L47.1350618,15.352902 L42.426,20 L41.0908902,20.000645 C42.7816299,18.2885303 44.5529117,16.4958406 46.4047355,14.6225757 C46.6064095,14.4209017 46.9333878,14.4209017 47.1350618,14.6225757 Z M10.5876399,2.7037822 C10.7893139,2.90545625 10.7893139,3.23243448 10.5876399,3.43410853 L7.25964778,6.58440311 L6.01159153,7.75022952 C3.78403497,9.81912866 2.63152121,10.8148428 2.55405026,10.7373718 C2.44917976,10.6325013 3.90721004,8.98021782 6.9281411,5.78052136 L9.85731353,2.7037822 L9.92883534,2.64402693 C10.1301024,2.50459796 10.408374,2.52451638 10.5876399,2.7037822 Z" id="Combined-Shape" fill="url(#linearGradient-1)"></path>
                    <path d="M48.0497492,26.7299963 C48.1164014,26.7961857 48.1538462,26.8859576 48.1538462,26.9795634 L48.1538462,34.020214 C48.1538462,34.1138198 48.1164014,34.2035918 48.0497492,34.2697811 L46.5589673,35.7502104 C46.4201713,35.8880425 46.4201713,36.1115124 46.5589673,36.2493445 L48.0497492,37.7297738 C48.1164014,37.7959631 48.1538462,37.8857351 48.1538462,37.9793409 L48.1538462,45.0204366 C48.1538462,45.1140424 48.1164014,45.2038144 48.0497492,45.2700036 L45.4047589,47.8966259 C45.3381068,47.9628152 45.247707,48 45.1534466,48 L26.5331139,48 C26.2386832,48 26,47.7629743 26,47.4705882 L26,24.5294118 C26,24.2370257 26.2386832,24 26.5331139,24 L45.1534466,24 C45.247707,24 45.3381068,24.0371848 45.4047589,24.1033741 L48.0497492,26.7299963 Z M43.1829589,43.5 C43.379246,43.5 43.5383682,43.3419828 43.5383682,43.1470588 L43.5383682,38.2557871 C43.5383682,38.0218782 43.3474216,37.8322577 43.111877,37.8322577 L39.9765687,37.8322577 L41.0236574,41.400077 C41.0362285,41.4429116 41.0276699,41.4891265 41.0005749,41.524717 C40.9532255,41.5869127 40.8640689,41.5992146 40.8014382,41.5521939 L37.3058889,38.9278734 L33.8142624,41.5494019 C33.7781682,41.5765016 33.7312388,41.5849195 33.6878784,41.5720718 C33.6126412,41.549779 33.5698477,41.4711388 33.5922964,41.3964241 L34.9063781,37.0228418 L30.615478,34.2454071 L30.615478,43.1470588 C30.615478,43.3419828 30.7746002,43.5 30.9708873,43.5 L43.1829589,43.5 Z M43.111877,34.1652943 C43.347415,34.1652943 43.5383589,33.9756672 43.5383682,33.7417649 L43.5385923,28.9235058 C43.5385923,28.6895804 43.3476457,28.4999598 43.1121011,28.4999598 L30.9708873,28.4999598 C30.7746002,28.4999598 30.615478,28.6579936 30.615478,28.8529176 L30.615478,34.1652943 L35.8668996,34.1652943 L37.1710576,30.2785783 C37.1852037,30.2364193 37.218513,30.2033351 37.2609642,30.1892793 C37.335448,30.1646174 37.4159613,30.2045867 37.4407957,30.2785532 L38.7457746,34.1652943 L43.111877,34.1652943 Z" id="BS-Logo" fill="#E80000" fill-rule="nonzero"></path>
                </g>
            </g>
        </g>
    </g>
</svg>