<svg xmlns="http://www.w3.org/2000/svg"
  width="64"
  height="64"
  viewBox="0 0 64 64">
  <defs>
    <linearGradient id="prefix__b"
      x1="67.435%"
      x2="21.989%"
      y1="0%"
      y2="100%">
      <stop offset="0%"
        stop-color="#FF8B4E"/>
      <stop offset="100%"
        stop-color="red"/>
    </linearGradient>
    <linearGradient id="prefix__a"
      x1="50%"
      x2="50%"
      y1="100%"
      y2=".872%">
      <stop offset="0%"
        stop-color="#FFF"
        stop-opacity=".08"/>
      <stop offset="100%"
        stop-color="#FFF"
        stop-opacity=".32"/>
    </linearGradient>
    <linearGradient id="prefix__c"
      x1="66.776%"
      x2="27.056%"
      y1="0%"
      y2="94.726%">
      <stop offset="0%"
        stop-color="#FFF"/>
      <stop offset="100%"
        stop-color="#FFE09C"/>
    </linearGradient>
  </defs>
  <g fill="none"
    fill-rule="evenodd">
    <path fill="url(#prefix__b)"
      stroke="url(#prefix__a)"
      d="M40.925.5h-17.85c-7.882 0-10.747.803-13.63 2.345-2.846 1.522-5.078 3.754-6.6 6.6C1.303 12.327.5 15.192.5 23.074v17.85c0 7.882.803 10.747 2.345 13.63 1.522 2.846 3.754 5.078 6.6 6.6 2.883 1.542 5.748 2.345 13.63 2.345h17.85c7.882 0 10.747-.803 13.63-2.345 2.846-1.522 5.078-3.754 6.6-6.6 1.542-2.883 2.345-5.748 2.345-13.63v-17.85c0-7.882-.803-10.747-2.345-13.63-1.522-2.846-3.754-5.078-6.6-6.6C51.673 1.303 48.808.5 40.926.5z"/>
    <path fill="url(#prefix__c)"
      d="M43.154 14.222v21.404l.006 4.845c0 2.49-2.199 4.844-4.844 4.844-2.672 0-4.844-2.172-4.844-4.844 0-2.58 2.025-4.694 4.57-4.836l.274-.008h2.602l-.001-10.882-13.447 5.5.002 10.59h-.006v4.099c0 2.405-2.05 4.681-4.572 4.835l-.272.009c-2.673 0-4.844-2.172-4.844-4.844 0-2.58 2.024-4.694 4.57-4.836l.274-.008 2.614-.001V21.552l17.918-7.33z"/>
  </g>
</svg>
